<svg width="299" height="37" viewBox="0 0 299 37" fill="none" xmlns="http://www.w3.org/2000/svg">
<path d="M6.25 30.5H21.75V36H0.5V0.999998H21.5V6.5H6.25V15.6H20.25V21.05H6.25V30.5ZM43.2707 36.65C38.004 36.65 33.6374 34.9167 30.1707 31.45C26.704 27.95 24.9707 23.6333 24.9707 18.5C24.9707 13.3667 26.704 9.06667 30.1707 5.6C33.6374 2.1 38.004 0.349997 43.2707 0.349997C46.4374 0.349997 49.354 1.1 52.0207 2.6C54.7207 4.1 56.8207 6.13333 58.3207 8.7L53.3207 11.6C52.3874 9.86667 51.0207 8.5 49.2207 7.5C47.454 6.46667 45.4707 5.95 43.2707 5.95C39.5374 5.95 36.504 7.13333 34.1707 9.5C31.8707 11.8667 30.7207 14.8667 30.7207 18.5C30.7207 22.1333 31.8707 25.1333 34.1707 27.5C36.504 29.8667 39.5374 31.05 43.2707 31.05C45.4707 31.05 47.4707 30.55 49.2707 29.55C51.0707 28.5167 52.4207 27.1333 53.3207 25.4L58.3207 28.25C56.854 30.8167 54.7707 32.8667 52.0707 34.4C49.404 35.9 46.4707 36.65 43.2707 36.65ZM92.1035 31.4C88.6035 34.9 84.3202 36.65 79.2535 36.65C74.1868 36.65 69.8868 34.9 66.3535 31.4C62.8535 27.8667 61.1035 23.5667 61.1035 18.5C61.1035 13.4333 62.8535 9.15 66.3535 5.65C69.8868 2.11666 74.1868 0.349997 79.2535 0.349997C84.3202 0.349997 88.6035 2.11666 92.1035 5.65C95.6369 9.15 97.4035 13.4333 97.4035 18.5C97.4035 23.5667 95.6369 27.8667 92.1035 31.4ZM70.4035 27.5C72.8035 29.8667 75.7535 31.05 79.2535 31.05C82.7535 31.05 85.6868 29.8667 88.0535 27.5C90.4535 25.1 91.6535 22.1 91.6535 18.5C91.6535 14.9 90.4535 11.9167 88.0535 9.55C85.6868 7.15 82.7535 5.95 79.2535 5.95C75.7535 5.95 72.8035 7.15 70.4035 9.55C68.0368 11.9167 66.8535 14.9 66.8535 18.5C66.8535 22.1 68.0368 25.1 70.4035 27.5Z" fill="white"/>
<path d="M119.198 36.65C113.932 36.65 109.565 34.9167 106.098 31.45C102.632 27.95 100.898 23.6333 100.898 18.5C100.898 13.3667 102.632 9.06667 106.098 5.6C109.565 2.1 113.932 0.349997 119.198 0.349997C122.365 0.349997 125.282 1.1 127.948 2.6C130.648 4.1 132.748 6.13333 134.248 8.7L129.248 11.6C128.315 9.86667 126.948 8.5 125.148 7.5C123.382 6.46667 121.398 5.95 119.198 5.95C115.465 5.95 112.432 7.13333 110.098 9.5C107.798 11.8667 106.648 14.8667 106.648 18.5C106.648 22.1333 107.798 25.1333 110.098 27.5C112.432 29.8667 115.465 31.05 119.198 31.05C121.398 31.05 123.398 30.55 125.198 29.55C126.998 28.5167 128.348 27.1333 129.248 25.4L134.248 28.25C132.782 30.8167 130.698 32.8667 127.998 34.4C125.332 35.9 122.398 36.65 119.198 36.65ZM161.581 36L159.131 28.95H144.231L141.781 36H135.531L148.231 0.999998H155.131L167.781 36H161.581ZM146.131 23.55H157.231L151.681 7.75L146.131 23.55ZM205.045 0.999998V36H199.295V11.05L188.645 28.65H187.945L177.295 11V36H171.545V0.999998H177.745L188.295 18.5L198.895 0.999998H205.045ZM224.923 0.999998C228.223 0.999998 230.973 2.1 233.173 4.3C235.407 6.5 236.523 9.23333 236.523 12.5C236.523 15.7333 235.407 18.4667 233.173 20.7C230.973 22.9 228.223 24 224.923 24H217.773V36H212.023V0.999998H224.923ZM224.923 18.6C226.623 18.6 228.023 18.0333 229.123 16.9C230.223 15.7333 230.773 14.2667 230.773 12.5C230.773 10.7333 230.223 9.28333 229.123 8.15C228.023 6.98333 226.623 6.4 224.923 6.4H217.773V18.6H224.923ZM263.966 33.35C261.499 35.55 258.316 36.65 254.416 36.65C250.516 36.65 247.332 35.55 244.866 33.35C242.399 31.1167 241.166 28.1333 241.166 24.4V0.999998H246.916V24.05C246.916 26.1833 247.532 27.8833 248.766 29.15C250.032 30.4167 251.916 31.05 254.416 31.05C256.916 31.05 258.782 30.4167 260.016 29.15C261.282 27.8833 261.916 26.1833 261.916 24.05V0.999998H267.666V24.4C267.666 28.1333 266.432 31.1167 263.966 33.35ZM285.929 36.65C282.563 36.65 279.696 35.8833 277.329 34.35C274.996 32.8167 273.363 30.7167 272.429 28.05L277.379 25.15C278.779 29.0833 281.679 31.05 286.079 31.05C288.246 31.05 289.863 30.6333 290.929 29.8C292.029 28.9333 292.579 27.8167 292.579 26.45C292.579 25.0167 291.996 23.9333 290.829 23.2C289.663 22.4333 287.596 21.6 284.629 20.7C282.963 20.2 281.613 19.7333 280.579 19.3C279.546 18.8667 278.446 18.2667 277.279 17.5C276.146 16.7 275.296 15.7167 274.729 14.55C274.163 13.3833 273.879 12.0167 273.879 10.45C273.879 7.35 274.979 4.9 277.179 3.1C279.379 1.26666 282.029 0.349997 285.129 0.349997C287.929 0.349997 290.379 1.03333 292.479 2.4C294.579 3.76666 296.196 5.65 297.329 8.05L292.479 10.85C291.013 7.58333 288.563 5.95 285.129 5.95C283.463 5.95 282.129 6.35 281.129 7.15C280.129 7.91667 279.629 8.96667 279.629 10.3C279.629 11.6 280.129 12.6333 281.129 13.4C282.163 14.1333 284.013 14.9167 286.679 15.75C288.013 16.1833 288.979 16.5167 289.579 16.75C290.213 16.95 291.079 17.2833 292.179 17.75C293.313 18.2167 294.163 18.6833 294.729 19.15C295.296 19.6167 295.896 20.2 296.529 20.9C297.196 21.6 297.663 22.4 297.929 23.3C298.196 24.2 298.329 25.2167 298.329 26.35C298.329 29.5167 297.179 32.0333 294.879 33.9C292.613 35.7333 289.629 36.65 285.929 36.65Z" fill="#00FF57"/>
</svg>
